<svg width="20" height="20" viewBox="0 0 20 20" fill="none" xmlns="http://www.w3.org/2000/svg">
<g clip-path="url(#clip0_211_671)">
<path d="M10.0004 1.74999C11.1141 1.74999 12.1941 1.96749 13.2104 2.39687C14.1929 2.81312 15.0741 3.40749 15.8335 4.16499C16.591 4.92249 17.1873 5.80562 17.6016 6.78812C18.0329 7.80624 18.2504 8.88624 18.2504 9.99999C18.2504 11.1137 18.0329 12.1937 17.6035 13.21C17.1873 14.1925 16.5929 15.0737 15.8354 15.8331C15.0779 16.5906 14.1948 17.1869 13.2123 17.6012C12.1941 18.0325 11.1141 18.25 10.0004 18.25C8.88664 18.25 7.80664 18.0325 6.79039 17.6031C5.80789 17.1869 4.92664 16.5925 4.16727 15.835C3.40977 15.0775 2.81352 14.1944 2.39914 13.2119C1.96789 12.1937 1.75039 11.1137 1.75039 9.99999C1.75039 8.88624 1.96789 7.80624 2.39727 6.78999C2.81352 5.80749 3.40789 4.92624 4.16539 4.16687C4.92289 3.40937 5.80602 2.81312 6.78852 2.39874C7.80664 1.96749 8.88664 1.74999 10.0004 1.74999ZM10.0004 0.399994C4.69789 0.399994 0.400391 4.69749 0.400391 9.99999C0.400391 15.3025 4.69789 19.6 10.0004 19.6C15.3029 19.6 19.6004 15.3025 19.6004 9.99999C19.6004 4.69749 15.3029 0.399994 10.0004 0.399994Z" fill="white"/>
<path d="M6.97719 13.6975C6.80469 13.6975 6.63219 13.6319 6.49906 13.5006C6.23469 13.2363 6.23469 12.8087 6.49906 12.5462L12.5441 6.50124C12.8084 6.23687 13.2359 6.23687 13.4984 6.50124C13.7628 6.76562 13.7628 7.19312 13.4984 7.45562L7.45531 13.5006C7.32219 13.6319 7.14969 13.6975 6.97719 13.6975Z" fill="white"/>
<path d="M13.0222 13.6975C12.8497 13.6975 12.6772 13.6319 12.5441 13.5006L6.49906 7.45562C6.23469 7.19125 6.23469 6.76374 6.49906 6.50124C6.76344 6.23687 7.19094 6.23687 7.45344 6.50124L13.4984 12.5462C13.7628 12.8106 13.7628 13.2381 13.4984 13.5006C13.3672 13.6319 13.1947 13.6975 13.0222 13.6975Z" fill="white"/>
</g>
<defs>
<clipPath id="clip0_211_671">
<rect width="19.2" height="19.2" fill="white" transform="translate(0.400391 0.399994)"/>
</clipPath>
</defs>
</svg>
