<svg width="22" height="22" viewBox="0 0 22 22" fill="none" xmlns="http://www.w3.org/2000/svg">
<path d="M18.2149 0.961563H3.85167C2.26488 0.961563 0.978516 2.24793 0.978516 3.83472V18.198C0.978516 19.7848 2.26488 21.0711 3.85167 21.0711H18.2149C19.8017 21.0711 21.0881 19.7848 21.0881 18.198V3.83472C21.0881 2.24793 19.8017 0.961563 18.2149 0.961563ZM15.2985 2.44546V8.09723H6.77623V2.44546H15.2985ZM19.6529 18.2019C19.6535 18.9933 19.0125 19.6353 18.2211 19.6359H3.855C3.47088 19.6359 3.10819 19.4883 2.83655 19.2167C2.56491 18.945 2.41376 18.586 2.41376 18.2019V3.8361C2.41519 3.04103 3.05993 2.39716 3.855 2.39681H5.29235V8.14588C5.29118 8.93739 5.93187 9.57995 6.72338 9.58113H15.3458C16.1392 9.58113 16.7824 8.93924 16.7824 8.14588V2.39681H18.217C19.0108 2.39765 19.6537 3.0419 19.6529 3.83577V18.2019Z" fill="white"/>
</svg>
